<?xml version="1.0" encoding="utf-8"?><svg viewBox="0 0 24 24" xmlns="http://www.w3.org/2000/svg" xmlns:xlink="http://www.w3.org/1999/xlink"><style>:root>svg{display:none}:root>svg:target{display:block}</style><svg viewBox="0 0 24 24" id="Icons-github" xmlns="http://www.w3.org/2000/svg"><g clip-path="url(#aa)"><path fill-rule="evenodd" clip-rule="evenodd" d="M12 .25C5.372.25 0 5.644 0 12.298c0 5.322 3.438 9.838 8.207 11.431.6.113.82-.261.82-.58l-.017-2.05c-3.338.729-4.043-1.614-4.043-1.614-.545-1.392-1.332-1.762-1.332-1.762-1.09-.748.083-.733.083-.733 1.204.085 1.837 1.242 1.837 1.242 1.071 1.841 2.809 1.31 3.493 1 .109-.778.42-1.31.762-1.612-2.665-.304-5.466-1.337-5.466-5.954 0-1.315.467-2.39 1.235-3.233-.123-.305-.535-1.53.117-3.188 0 0 1.008-.324 3.3 1.235.958-.268 1.984-.4 3.005-.406 1.019.005 2.046.139 3.004.406 2.29-1.559 3.296-1.235 3.296-1.235.655 1.659.244 2.883.12 3.188.77.843 1.233 1.918 1.233 3.233 0 4.628-2.805 5.647-5.478 5.945.43.372.814 1.107.814 2.231l-.015 3.305c0 .323.216.698.825.58a12.043 12.043 0 008.2-11.43C24 5.644 18.627.25 12 .25z"/></g><defs><clipPath id="aa"><path d="M0 0h24v24H0z"/></clipPath></defs></svg><svg viewBox="0 0 24 24" id="Icons-instagram" xmlns="http://www.w3.org/2000/svg"><g clip-path="url(#ba)"><path fill-rule="evenodd" clip-rule="evenodd" d="M19.846 5.594a1.44 1.44 0 11-2.88 0 1.44 1.44 0 012.88 0zM12 16a4 4 0 110-8 4 4 0 010 8zm0-10.162a6.162 6.162 0 100 12.325 6.162 6.162 0 000-12.325zm0-3.676l4.849.07c1.17.054 1.805.249 2.228.413.56.218.96.478 1.38.898.42.42.68.82.898 1.38.164.423.36 1.058.413 2.228.058 1.266.07 1.645.07 4.85l-.07 4.848c-.053 1.17-.249 1.806-.413 2.229-.218.56-.478.96-.898 1.38-.42.42-.82.68-1.38.897-.423.165-1.058.36-2.228.414-1.265.057-1.645.07-4.849.07s-3.584-.013-4.85-.07c-1.17-.054-1.805-.25-2.227-.414a3.717 3.717 0 01-1.38-.897c-.42-.42-.68-.82-.898-1.38-.164-.423-.36-1.059-.413-2.229-.058-1.265-.07-1.645-.07-4.848l.07-4.85c.053-1.17.248-1.805.413-2.228.217-.56.478-.96.898-1.38.42-.42.819-.68 1.38-.898.422-.164 1.058-.36 2.228-.413 1.265-.058 1.645-.07 4.849-.07zM12 0C8.741 0 8.332.014 7.052.072 5.775.131 4.902.333 4.14.63a5.879 5.879 0 00-2.126 1.384A5.882 5.882 0 00.63 4.14c-.297.763-.5 1.635-.558 2.912C.014 8.332 0 8.742 0 12l.072 4.948c.058 1.277.261 2.15.558 2.912a5.88 5.88 0 001.384 2.126A5.884 5.884 0 004.14 23.37c.763.297 1.635.5 2.912.558 1.28.058 1.69.072 4.948.072 3.259 0 3.668-.014 4.948-.072 1.277-.058 2.15-.261 2.912-.558a5.882 5.882 0 002.126-1.384 5.883 5.883 0 001.384-2.126c.297-.763.5-1.635.558-2.912.058-1.28.072-1.69.072-4.948l-.072-4.948c-.058-1.277-.261-2.15-.558-2.912a5.882 5.882 0 00-1.384-2.126A5.882 5.882 0 0019.86.63c-.763-.297-1.635-.5-2.912-.558C15.668.014 15.258 0 12 0z"/></g><defs><radialGradient id="bb" cx="0" cy="0" r="1" gradientUnits="userSpaceOnUse" gradientTransform="translate(3.583 24.083) scale(30.666)"><stop stop-color="#FFB140"/><stop offset=".256" stop-color="#FF5445"/><stop offset=".599" stop-color="#FC2B82"/><stop offset="1" stop-color="#8E40B7"/></radialGradient><clipPath id="ba"><path d="M0 0h24v24H0z"/></clipPath></defs></svg><svg viewBox="0 0 24 24" id="Icons-twitter" xmlns="http://www.w3.org/2000/svg"><g clip-path="url(#ca)"><path fill-rule="evenodd" clip-rule="evenodd" d="M24 4.368a9.615 9.615 0 01-2.827.794 5.038 5.038 0 002.165-2.792 9.697 9.697 0 01-3.129 1.223A4.857 4.857 0 0016.616 2c-2.718 0-4.922 2.26-4.922 5.049 0 .395.042.78.126 1.15-4.092-.212-7.72-2.22-10.15-5.277a5.143 5.143 0 00-.667 2.54c0 1.752.87 3.297 2.19 4.203a4.83 4.83 0 01-2.23-.63v.062c0 2.447 1.697 4.488 3.951 4.95a4.692 4.692 0 01-1.297.178c-.312 0-.622-.03-.927-.09.626 2.006 2.444 3.466 4.599 3.505a9.722 9.722 0 01-7.29 2.093 13.71 13.71 0 007.548 2.266c9.058 0 14.01-7.692 14.01-14.364 0-.219-.005-.437-.014-.655.963-.712 1.798-1.6 2.456-2.613"/></g><defs><clipPath id="ca"><path d="M0 0h24v24H0z"/></clipPath></defs></svg><svg viewBox="0 0 24 24" id="paper-clip" xmlns="http://www.w3.org/2000/svg"><g clip-path="url(#da)"><path d="M16.5 6v11.5c0 2.21-1.79 4-4 4s-4-1.79-4-4V5a2.5 2.5 0 015 0v10.5c0 .55-.45 1-1 1s-1-.45-1-1V6H10v9.5a2.5 2.5 0 005 0V5c0-2.21-1.79-4-4-4S7 2.79 7 5v12.5c0 3.04 2.46 5.5 5.5 5.5s5.5-2.46 5.5-5.5V6h-1.5z"/></g><defs><clipPath id="da"><path d="M0 0h24v24H0z"/></clipPath></defs></svg></svg>